# Wavefront Obj file
# 
# verts: 170 uv-s: 221
mtllib 5E Canal.mtl

g 5E_Canal
#pivot 0.000000 0.000000 0.000000

v -254.136627 0.000000 -3142.822998
v -216.971283 0.000000 -3142.822998
v -216.971283 0.000000 -3111.198975
v -254.136627 0.000000 -3111.198975
v 110.477600 0.000000 -3142.822998
v 475.091888 0.000000 -3142.822998
v 475.091888 0.000000 -3111.198975
v 110.477600 0.000000 -3111.198975
v 839.706177 0.000000 -3142.822998
v 839.706177 0.000000 -3111.198975
v 110.477600 0.000000 -3416.931641
v 475.091888 0.000000 -3416.931641
v 475.091888 0.000000 -3264.065186
v 110.477600 0.000000 -3264.065186
v 839.706177 0.000000 -3416.931641
v 839.706177 0.000000 -3264.065186
v 110.477600 0.000000 -3569.797607
v 475.091888 0.000000 -3569.797607
v 839.706177 0.000000 -3569.797607
v 110.477600 0.000000 -3664.374512
v 475.091888 0.000000 -3664.374512
v 839.706177 0.000000 -3664.374512
v -216.971283 303.467712 -3111.198975
v -216.971283 303.467712 -3142.822998
v -254.136627 303.467712 -3142.822998
v -254.136627 303.467712 -3111.198975
v 475.091888 303.467712 -3111.198975
v 475.091888 303.467712 -3142.822998
v 110.477600 303.467712 -3142.822998
v 110.477600 303.467712 -3111.198975
v 839.706177 303.467712 -3111.198975
v 839.706177 303.467712 -3142.822998
v -216.971283 303.467712 -3264.065186
v -216.971283 303.467712 -3416.931641
v -254.136627 303.467712 -3416.931641
v -254.136627 303.467712 -3264.065186
v 475.091888 303.467712 -3264.065186
v 475.091888 303.467712 -3416.931641
v 110.477600 303.467712 -3416.931641
v 110.477600 303.467712 -3264.065186
v 839.706177 303.467712 -3264.065186
v 839.706177 303.467712 -3416.931641
v -216.971283 303.467712 -3569.797607
v -254.136627 303.467712 -3569.797607
v 475.091888 303.467712 -3569.797607
v 110.477600 303.467712 -3569.797607
v 839.706177 303.467712 -3569.797607
v -216.971283 303.467712 -3664.374512
v -254.136627 303.467712 -3664.374512
v 475.091888 303.467712 -3664.374512
v 110.477600 303.467712 -3664.374512
v 839.706177 303.467712 -3664.374512
v -216.971283 60.693600 -3111.198975
v -254.136627 60.693600 -3111.198975
v 475.091888 60.693600 -3111.198975
v 110.477600 60.693600 -3111.198975
v 839.706177 60.693600 -3111.198975
v -216.971283 121.387100 -3111.198975
v -254.136627 121.387100 -3111.198975
v 475.091888 121.387100 -3111.198975
v 110.477600 121.387100 -3111.198975
v 839.706177 121.387100 -3111.198975
v -216.971283 182.080704 -3111.198975
v -254.136627 182.080704 -3111.198975
v 475.091888 182.080704 -3111.198975
v 110.477600 182.080704 -3111.198975
v 839.706177 182.080704 -3111.198975
v -216.971283 242.774200 -3111.198975
v -254.136627 242.774200 -3111.198975
v 475.091888 242.774200 -3111.198975
v 110.477600 242.774200 -3111.198975
v 839.706177 242.774200 -3111.198975
v 839.706177 60.693600 -3142.822998
v 839.706177 60.693600 -3416.931641
v 839.706177 60.693600 -3264.065186
v 839.706177 60.693600 -3569.797607
v 839.706177 60.693600 -3664.374512
v 839.706177 121.387100 -3142.822998
v 839.706177 121.387100 -3416.931641
v 839.706177 121.387100 -3264.065186
v 839.706177 121.387100 -3569.797607
v 839.706177 121.387100 -3664.374512
v 839.706177 182.080704 -3142.822998
v 839.706177 182.080704 -3416.931641
v 839.706177 182.080704 -3264.065186
v 839.706177 182.080704 -3569.797607
v 839.706177 182.080704 -3664.374512
v 839.706177 242.774200 -3142.822998
v 839.706177 242.774200 -3416.931641
v 839.706177 242.774200 -3264.065186
v 839.706177 242.774200 -3569.797607
v 839.706177 242.774200 -3664.374512
v 475.091888 0.000000 -3722.664063
v 475.091888 60.693600 -3722.664063
v 839.706177 60.693600 -3722.664063
v 839.706177 0.000000 -3722.664063
v 110.477600 0.000000 -3722.664063
v 110.477600 60.693600 -3722.664063
v 65.613190 0.000000 -3722.664063
v 65.613098 60.693600 -3722.664063
v 475.091888 121.387100 -3722.664063
v 839.706177 121.387100 -3722.664063
v 110.477600 121.387100 -3722.664063
v 65.613098 121.387100 -3722.664063
v 475.091888 182.080704 -3722.664063
v 839.706177 182.080704 -3722.664063
v 110.477600 182.080704 -3722.664063
v 65.613098 182.080704 -3722.664063
v 475.091888 242.774200 -3722.664063
v 839.706177 242.774200 -3722.664063
v 110.477600 242.774200 -3722.664063
v 65.613098 242.774200 -3722.664063
v 475.091888 303.467712 -3722.664063
v 839.706177 303.467712 -3722.664063
v 110.477600 303.467712 -3722.664063
v 65.613190 303.467712 -3722.664063
v -254.136627 0.000000 -3664.374512
v -254.136627 60.693600 -3664.374512
v -254.136627 60.693600 -3722.664063
v -254.136627 0.000000 -3722.664063
v -254.136627 121.387100 -3664.374512
v -254.136627 121.387100 -3722.664063
v -254.136627 182.080704 -3664.374512
v -254.136627 182.080704 -3722.664063
v -254.136627 242.774200 -3664.374512
v -254.136627 242.774200 -3722.664063
v -254.136627 182.080704 -3416.931641
v -254.136627 242.774200 -3416.931641
v -254.136627 242.774200 -3569.797607
v -254.136627 182.080704 -3569.797607
v -254.136627 182.080704 -3264.065186
v -254.136627 242.774200 -3264.065186
v -254.136627 182.080597 -3142.822998
v -254.136627 242.774200 -3142.822998
v -254.136627 303.467712 -3722.664063
v 65.613190 303.467712 -3111.198975
v 65.613190 303.467712 -3142.822998
v 65.613190 303.467712 -3264.065186
v 65.613190 303.467712 -3416.931641
v 65.613190 303.467712 -3569.797607
v 65.613190 303.467712 -3664.374512
v 65.613190 182.080704 -3111.198975
v 65.613190 242.774200 -3111.198975
v -216.971283 60.693600 -3722.664063
v -216.971283 0.000000 -3722.664063
v -216.971283 121.387100 -3722.664063
v -216.971283 182.080704 -3722.664063
v -216.971283 242.774200 -3722.664063
v -216.971283 303.467712 -3722.664063
v 65.613190 0.000000 -3142.822998
v 65.613190 0.000000 -3264.065186
v 65.613190 0.000000 -3416.931641
v 65.613190 0.000000 -3569.797607
v 65.613190 0.000000 -3664.374512
v 65.613190 60.693600 -3111.198975
v 65.613190 0.000000 -3111.198975
v 65.613190 121.387100 -3111.198975
v -254.136627 60.693501 -3142.822998
v -254.136627 121.387100 -3142.822998
v -216.971283 0.000000 -3664.374512
v 65.613190 182.080704 -3569.523193
v 65.613190 182.080704 -3416.931641
v -216.971283 182.080704 -3416.931641
v -216.971283 182.080704 -3569.523193
v 65.613190 182.080704 -3141.155762
v -216.971283 182.080704 -3141.155762
v 65.613190 182.080704 -3265.201904
v -216.971283 182.080704 -3265.201904
v -216.971283 182.080704 -3664.724854
v 65.613190 182.080704 -3664.724854
# 170 positions

vt 0.700620 0.061700
vt 0.700619 0.019026
vt 0.736929 0.019025
vt 0.736931 0.061698
vt 0.923212 0.746731
vt 0.923212 0.592716
vt 0.936569 0.592716
vt 0.936570 0.746731
vt 0.923212 0.438702
vt 0.936570 0.438702
vt 0.807428 0.746731
vt 0.807428 0.592717
vt 0.871998 0.592717
vt 0.871999 0.746731
vt 0.807429 0.438702
vt 0.872000 0.438702
vt 0.742857 0.746732
vt 0.742856 0.592717
vt 0.742859 0.438703
vt 0.702906 0.746732
vt 0.702906 0.592717
vt 0.702910 0.438703
vt 0.390807 0.460391
vt 0.378475 0.460391
vt 0.378475 0.445899
vt 0.390807 0.445900
vt 0.390797 0.730247
vt 0.378466 0.730246
vt 0.378475 0.588071
vt 0.390807 0.588072
vt 0.390788 0.872421
vt 0.378460 0.872421
vt 0.331197 0.460390
vt 0.271587 0.460388
vt 0.271585 0.445897
vt 0.331197 0.445898
vt 0.331191 0.730244
vt 0.271586 0.730244
vt 0.271587 0.588069
vt 0.331197 0.588070
vt 0.331188 0.872420
vt 0.271584 0.872419
vt 0.211976 0.460390
vt 0.211975 0.445898
vt 0.211981 0.730244
vt 0.211979 0.588070
vt 0.211980 0.872419
vt 0.175096 0.460392
vt 0.175095 0.445900
vt 0.175105 0.730246
vt 0.175099 0.588072
vt 0.175104 0.872420
vt 0.509141 0.460389
vt 0.485474 0.460392
vt 0.485474 0.445900
vt 0.509140 0.445898
vt 0.509136 0.730277
vt 0.485468 0.730266
vt 0.485480 0.588089
vt 0.509148 0.588095
vt 0.509086 0.872456
vt 0.485420 0.872441
vt 0.461808 0.460393
vt 0.461807 0.445901
vt 0.461800 0.730258
vt 0.461812 0.588083
vt 0.461759 0.872431
vt 0.438141 0.460394
vt 0.438141 0.445902
vt 0.438132 0.730253
vt 0.438144 0.588078
vt 0.438100 0.872425
vt 0.414474 0.460392
vt 0.414474 0.445901
vt 0.414464 0.730249
vt 0.414475 0.588075
vt 0.414444 0.872423
vt 0.378469 0.990754
vt 0.378469 0.967087
vt 0.390800 0.967087
vt 0.390800 0.990754
vt 0.271587 0.990752
vt 0.271587 0.967085
vt 0.331193 0.967086
vt 0.331193 0.990752
vt 0.211979 0.990753
vt 0.211979 0.967086
vt 0.175100 0.990753
vt 0.175100 0.967087
vt 0.378468 0.943421
vt 0.390799 0.943421
vt 0.271587 0.943419
vt 0.331193 0.943419
vt 0.211979 0.943419
vt 0.175101 0.943420
vt 0.378467 0.919754
vt 0.390797 0.919754
vt 0.271586 0.919752
vt 0.331192 0.919753
vt 0.211980 0.919753
vt 0.175101 0.919753
vt 0.378464 0.896088
vt 0.390794 0.896087
vt 0.271586 0.896086
vt 0.331190 0.896086
vt 0.211980 0.896086
vt 0.175103 0.896087
vt 0.034051 0.730261
vt 0.057716 0.730257
vt 0.057733 0.872431
vt 0.034069 0.872436
vt 0.034035 0.588086
vt 0.057701 0.588082
vt 0.034033 0.570591
vt 0.057699 0.570588
vt 0.081381 0.730254
vt 0.081396 0.872428
vt 0.081368 0.588079
vt 0.081366 0.570585
vt 0.105046 0.730252
vt 0.105058 0.872425
vt 0.105035 0.588077
vt 0.105034 0.570583
vt 0.128711 0.730249
vt 0.128718 0.872423
vt 0.128702 0.588075
vt 0.128701 0.570581
vt 0.152377 0.730247
vt 0.152377 0.872421
vt 0.152369 0.588073
vt 0.152368 0.570580
vt 0.101775 0.061698
vt 0.101775 0.131388
vt 0.034846 0.131388
vt 0.034846 0.061698
vt 0.101775 0.201076
vt 0.034846 0.201076
vt 0.101775 0.270766
vt 0.034846 0.270766
vt 0.101775 0.340454
vt 0.034846 0.340454
vt 0.385891 0.270766
vt 0.385892 0.340455
vt 0.210369 0.340454
vt 0.210369 0.270766
vt 0.561414 0.270766
vt 0.561414 0.340454
vt 0.700625 0.270766
vt 0.700626 0.340454
vt 0.101775 0.410143
vt 0.034845 0.410143
vt 0.385891 0.410144
vt 0.210369 0.410144
vt 0.561414 0.410144
vt 0.700626 0.410142
vt 0.390807 0.570579
vt 0.378475 0.570577
vt 0.331197 0.570576
vt 0.271587 0.570575
vt 0.211978 0.570576
vt 0.175098 0.570578
vt 0.438144 0.570584
vt 0.414475 0.570581
vt 0.034036 0.445898
vt 0.057701 0.445900
vt 0.057701 0.460392
vt 0.034035 0.460391
vt 0.081367 0.445901
vt 0.081367 0.460393
vt 0.105033 0.445902
vt 0.105033 0.460394
vt 0.128699 0.445902
vt 0.128699 0.460394
vt 0.152366 0.445902
vt 0.152365 0.460394
vt 0.923212 0.765682
vt 0.871999 0.765682
vt 0.807428 0.765682
vt 0.742857 0.765683
vt 0.678285 0.746731
vt 0.702906 0.765683
vt 0.678285 0.765682
vt 0.485482 0.570595
vt 0.509149 0.570600
vt 0.461813 0.570589
vt 0.736932 0.131388
vt 0.700621 0.131389
vt 0.736935 0.201075
vt 0.700624 0.201076
vt 0.736936 0.270765
vt 0.736937 0.340454
vt 0.736937 0.410143
vt 0.936570 0.765682
vt 0.034846 0.019025
vt 0.101775 0.019025
vt 0.678285 0.592716
vt 0.678288 0.438702
vt 0.152372 0.990753
vt 0.152372 0.967087
vt 0.152372 0.943420
vt 0.152372 0.919754
vt 0.152373 0.896087
vt 0.742973 0.842594
vt 0.807428 0.842594
vt 0.807429 0.961959
vt 0.742974 0.961959
vt 0.923916 0.842593
vt 0.936570 0.842593
vt 0.936571 0.961958
vt 0.923917 0.961958
vt 0.871519 0.842594
vt 0.871519 0.961958
vt 0.702760 0.961959
vt 0.678287 0.961959
vt 0.678286 0.842595
vt 0.702760 0.842594
vt 0.923213 0.977657
vt 0.872000 0.977657
vt 0.807429 0.977658
vt 0.742858 0.977658
vt 0.702909 0.977658
# 221 texture coordinates

vn -0.707107 -0.707107 0.000000
vn 0.000000 -1.000000 -0.000000
vn 0.000000 -0.707107 0.707107
vn -0.333333 -0.666667 0.666667
vn 0.707107 -0.707107 0.000000
vn 0.577350 -0.577350 0.577350
vn 0.000000 0.707107 0.707107
vn 0.000000 1.000000 0.000000
vn -0.707107 0.707107 0.000000
vn -0.577350 0.577350 0.577350
vn 0.577350 0.577350 0.577350
vn 0.707107 0.707107 0.000000
vn 0.000000 0.000000 1.000000
vn -0.554700 0.000000 0.832050
vn 0.707107 0.000000 0.707107
vn 0.000000 0.000000 1.000000
vn 0.707107 0.000000 0.707107
vn 1.000000 0.000000 0.000000
vn 1.000000 0.000000 0.000000
vn 0.000000 -0.707107 -0.707107
vn 0.000000 0.000000 -1.000000
vn 0.707107 0.000000 -0.707107
vn 0.577350 -0.577350 -0.577350
vn -0.333333 -0.666667 -0.666667
vn 0.000000 0.000000 -1.000000
vn -0.624695 0.000000 -0.780869
vn 0.000000 0.000000 -1.000000
vn 0.707107 0.000000 -0.707107
vn 0.000000 0.707107 -0.707107
vn 0.577350 0.577350 -0.577350
vn -1.000000 0.000000 0.000000
vn -0.577350 0.577350 -0.577350
vn 0.000000 0.000000 1.000000
vn 0.000000 0.000000 -1.000000
vn -1.000000 -0.000000 0.000000
# 35 normals

usemtl default
f 1/1/1 2/2/2 3/3/3 4/4/4
f 5/5/2 6/6/2 7/7/3 8/8/3
f 6/6/2 9/9/5 10/10/6 7/7/3
f 11/11/2 12/12/2 13/13/2 14/14/2
f 12/12/2 15/15/5 16/16/5 13/13/2
f 17/17/2 18/18/2 12/12/2 11/11/2
f 18/18/2 19/19/5 15/15/5 12/12/2
f 20/20/2 21/21/2 18/18/2 17/17/2
f 21/21/2 22/22/5 19/19/5 18/18/2
f 23/23/7 24/24/8 25/25/9 26/26/10
f 27/27/7 28/28/8 29/29/8 30/30/7
f 31/31/11 32/32/12 28/28/8 27/27/7
f 33/33/8 34/34/8 35/35/9 36/36/9
f 37/37/8 38/38/8 39/39/8 40/40/8
f 41/41/12 42/42/12 38/38/8 37/37/8
f 34/34/8 43/43/8 44/44/9 35/35/9
f 38/38/8 45/45/8 46/46/8 39/39/8
f 42/42/12 47/47/12 45/45/8 38/38/8
f 43/43/8 48/48/8 49/49/9 44/44/9
f 45/45/8 50/50/8 51/51/8 46/46/8
f 47/47/12 52/52/12 50/50/8 45/45/8
f 3/53/3 53/54/13 54/55/14 4/56/4
f 7/57/3 55/58/13 56/59/13 8/60/3
f 10/61/6 57/62/15 55/58/13 7/57/3
f 53/54/13 58/63/13 59/64/14 54/55/14
f 55/58/13 60/65/13 61/66/13 56/59/13
f 57/62/15 62/67/15 60/65/13 55/58/13
f 58/63/13 63/68/16 64/69/14 59/64/14
f 60/65/13 65/70/13 66/71/13 61/66/13
f 62/67/15 67/72/15 65/70/13 60/65/13
f 63/68/16 68/73/13 69/74/14 64/69/14
f 65/70/13 70/75/13 71/76/13 66/71/13
f 67/72/15 72/77/17 70/75/13 65/70/13
f 68/73/13 23/23/7 26/26/10 69/74/14
f 70/75/13 27/27/7 30/30/7 71/76/13
f 72/77/17 31/31/11 27/27/7 70/75/13
f 9/78/5 73/79/18 57/80/15 10/81/6
f 15/82/5 74/83/18 75/84/18 16/85/5
f 19/86/5 76/87/18 74/83/18 15/82/5
f 22/88/5 77/89/18 76/87/18 19/86/5
f 73/79/18 78/90/18 62/91/15 57/80/15
f 74/83/18 79/92/18 80/93/18 75/84/18
f 76/87/18 81/94/18 79/92/18 74/83/18
f 77/89/18 82/95/18 81/94/18 76/87/18
f 78/90/18 83/96/18 67/97/15 62/91/15
f 79/92/18 84/98/18 85/99/18 80/93/18
f 81/94/18 86/100/18 84/98/18 79/92/18
f 82/95/18 87/101/18 86/100/18 81/94/18
f 83/96/18 88/102/19 72/103/17 67/97/15
f 84/98/18 89/104/19 90/105/19 85/99/18
f 86/100/18 91/106/19 89/104/19 84/98/18
f 87/101/18 92/107/19 91/106/19 86/100/18
f 88/102/19 32/32/12 31/31/11 72/103/17
f 89/104/19 42/42/12 41/41/12 90/105/19
f 91/106/19 47/47/12 42/42/12 89/104/19
f 92/107/19 52/52/12 47/47/12 91/106/19
f 93/108/20 94/109/21 95/110/22 96/111/23
f 97/112/20 98/113/21 94/109/21 93/108/20
f 99/114/24 100/115/25 98/113/21 97/112/20
f 94/109/21 101/116/21 102/117/22 95/110/22
f 98/113/21 103/118/21 101/116/21 94/109/21
f 100/115/25 104/119/26 103/118/21 98/113/21
f 101/116/21 105/120/21 106/121/22 102/117/22
f 103/118/21 107/122/21 105/120/21 101/116/21
f 104/119/26 108/123/27 107/122/21 103/118/21
f 105/120/21 109/124/21 110/125/28 106/121/22
f 107/122/21 111/126/21 109/124/21 105/120/21
f 108/123/27 112/127/21 111/126/21 107/122/21
f 109/124/21 113/128/29 114/129/30 110/125/28
f 111/126/21 115/130/29 113/128/29 109/124/21
f 112/127/21 116/131/29 115/130/29 111/126/21
f 117/132/1 118/133/31 119/134/26 120/135/24
f 118/133/31 121/136/31 122/137/26 119/134/26
f 121/136/31 123/138/31 124/139/26 122/137/26
f 123/138/31 125/140/31 126/141/26 124/139/26
f 127/142/31 128/143/31 129/144/31 130/145/31
f 131/146/31 132/147/31 128/143/31 127/142/31
f 133/148/31 134/149/31 132/147/31 131/146/31
f 125/140/31 49/150/9 135/151/32 126/141/26
f 128/143/31 35/152/9 44/153/9 129/144/31
f 132/147/31 36/154/9 35/152/9 128/143/31
f 134/149/31 25/155/9 36/154/9 132/147/31
f 136/156/7 137/157/8 24/24/8 23/23/7
f 138/158/8 139/159/8 34/34/8 33/33/8
f 139/159/8 140/160/8 43/43/8 34/34/8
f 140/160/8 141/161/8 48/48/8 43/43/8
f 142/162/33 143/163/13 68/73/13 63/68/16
f 143/163/13 136/156/7 23/23/7 68/73/13
f 120/164/24 119/165/26 144/166/21 145/167/20
f 119/165/26 122/168/26 146/169/21 144/166/21
f 122/168/26 124/170/26 147/171/34 146/169/21
f 124/170/26 126/172/26 148/173/21 147/171/34
f 126/172/26 135/174/32 149/175/29 148/173/21
f 147/171/34 148/173/21 112/127/21 108/123/27
f 148/173/21 149/175/29 116/131/29 112/127/21
f 14/14/2 5/5/2 150/176/2 151/177/2
f 11/11/2 14/14/2 151/177/2 152/178/2
f 17/17/2 11/11/2 152/178/2 153/179/2
f 97/180/20 20/20/2 154/181/2 99/182/24
f 30/30/7 29/29/8 137/157/8 136/156/7
f 40/40/8 39/39/8 139/159/8 138/158/8
f 46/46/8 51/51/8 141/161/8 140/160/8
f 8/60/3 56/59/13 155/183/14 156/184/4
f 56/59/13 61/66/13 157/185/14 155/183/14
f 61/66/13 66/71/13 142/162/33 157/185/14
f 66/71/13 71/76/13 143/163/13 142/162/33
f 71/76/13 30/30/7 136/156/7 143/163/13
f 14/14/2 13/13/2 6/6/2 5/5/2
f 13/13/2 16/16/5 9/9/5 6/6/2
f 33/33/8 36/36/9 25/25/9 24/24/8
f 37/37/8 40/40/8 29/29/8 28/28/8
f 41/41/12 37/37/8 28/28/8 32/32/12
f 16/85/5 75/84/18 73/79/18 9/78/5
f 75/84/18 80/93/18 78/90/18 73/79/18
f 80/93/18 85/99/18 83/96/18 78/90/18
f 85/99/18 90/105/19 88/102/19 83/96/18
f 90/105/19 41/41/12 32/32/12 88/102/19
f 4/4/4 54/186/14 158/187/31 1/1/1
f 54/186/14 59/188/14 159/189/31 158/187/31
f 59/188/14 64/190/14 133/148/31 159/189/31
f 64/190/14 69/191/14 134/149/31 133/148/31
f 69/191/14 26/192/10 25/155/9 134/149/31
f 138/158/8 33/33/8 24/24/8 137/157/8
f 8/8/3 156/193/4 150/176/2 5/5/2
f 40/40/8 138/158/8 137/157/8 29/29/8
f 120/135/24 145/194/20 160/195/2 117/132/1
f 97/180/20 93/196/20 21/21/2 20/20/2
f 93/196/20 96/197/23 22/22/5 21/21/2
f 149/175/29 135/174/32 49/49/9 48/48/8
f 113/128/29 115/130/29 51/51/8 50/50/8
f 114/129/30 113/128/29 50/50/8 52/52/12
f 96/198/23 95/199/22 77/89/18 22/88/5
f 95/199/22 102/200/22 82/95/18 77/89/18
f 102/200/22 106/201/22 87/101/18 82/95/18
f 106/201/22 110/202/28 92/107/19 87/101/18
f 110/202/28 114/129/30 52/52/12 92/107/19
f 130/145/31 129/144/31 125/140/31 123/138/31
f 129/144/31 44/153/9 49/150/9 125/140/31
f 116/131/29 149/175/29 48/48/8 141/161/8
f 17/17/2 153/179/2 154/181/2 20/20/2
f 115/130/29 116/131/29 141/161/8 51/51/8
f 46/46/8 140/160/8 139/159/8 39/39/8
f 161/203/2 162/204/2 163/205/2 164/206/2
f 165/207/2 142/208/2 63/209/2 166/210/2
f 167/211/2 165/207/2 166/210/2 168/212/2
f 162/204/2 167/211/2 168/212/2 163/205/2
f 169/213/2 147/214/2 108/215/2 170/216/2
f 164/206/2 169/213/2 170/216/2 161/203/2
f 168/212/2 166/210/2 133/217/2 131/218/2
f 163/205/2 168/212/2 131/218/2 127/219/2
f 164/206/2 163/205/2 127/219/2 130/220/2
f 169/213/2 164/206/2 130/220/2 123/221/2
f 142/208/35 165/207/35 150/176/35 156/193/35
f 165/207/35 167/211/35 151/177/35 150/176/35
f 167/211/35 162/204/35 152/178/35 151/177/35
f 162/204/35 161/203/35 153/179/35 152/178/35
f 161/203/35 170/216/35 154/181/35 153/179/35
f 170/216/35 108/215/35 99/182/35 154/181/35

# 158 faces
